{
	"asset":{
		"generator":"Khronos glTF Blender I/O v4.2.70",
		"version":"2.0"
	},
	"extensionsUsed":[
		"KHR_materials_specular",
		"KHR_materials_ior"
	],
	"scene":0,
	"scenes":[
		{
			"name":"Scene",
			"nodes":[
				0,
				1,
				2,
				3,
				4
			]
		}
	],
	"nodes":[
		{
			"mesh":0,
			"name":"Plane"
		},
		{
			"mesh":1,
			"name":"Cylinder",
			"scale":[
				1,
				1.3724759817123413,
				1
			]
		},
		{
			"mesh":2,
			"name":"Cylinder.001",
			"scale":[
				1,
				1.3724759817123413,
				1
			]
		},
		{
			"mesh":3,
			"name":"rubber_duck_toy",
			"scale":[
				2,
				2,
				2
			],
			"translation":[
				0.5307925939559937,
				1.3064814805984497,
				-0.18416790664196014
			]
		},
		{
			"mesh":4,
			"name":"Mesh_0",
			"rotation":[
				-0.7208021283149719,
				-0.0027336650528013706,
				-0.023466089740395546,
				0.6927382349967957
			],
			"scale":[
				0.30075398087501526,
				0.30075398087501526,
				0.30075398087501526
			],
			"translation":[
				-0.21143123507499695,
				2.964608907699585,
				0.36555057764053345
			]
		}
	],
	"materials":[
		{
			"doubleSided":true,
			"name":"Wood",
			"pbrMetallicRoughness":{
				"baseColorTexture":{
					"index":0
				},
				"metallicFactor":0.00909094512462616
			}
		},
		{
			"doubleSided":true,
			"name":"MetalHoop",
			"pbrMetallicRoughness":{
				"baseColorFactor":[
					0.07877066731452942,
					0.07877066731452942,
					0.07877066731452942,
					1
				],
				"metallicFactor":0.9318181872367859,
				"roughnessFactor":0.6818181872367859
			}
		},
		{
			"doubleSided":true,
			"extensions":{
				"KHR_materials_specular":{
					"specularColorFactor":[
						1.5807470083236694,
						1.5807470083236694,
						1.5807470083236694
					]
				},
				"KHR_materials_ior":{
					"ior":1.4500000476837158
				}
			},
			"name":"rubber_duck_toy",
			"normalTexture":{
				"index":1
			},
			"pbrMetallicRoughness":{
				"baseColorTexture":{
					"index":2
				},
				"metallicRoughnessTexture":{
					"index":3
				}
			}
		},
		{
			"emissiveFactor":[
				1,
				1,
				1
			],
			"emissiveTexture":{
				"index":4
			},
			"name":"Material_0.001",
			"pbrMetallicRoughness":{
				"baseColorTexture":{
					"index":5
				}
			}
		}
	],
	"meshes":[
		{
			"name":"Plane",
			"primitives":[
				{
					"attributes":{
						"POSITION":0,
						"NORMAL":1,
						"TEXCOORD_0":2
					},
					"indices":3,
					"material":0
				}
			]
		},
		{
			"name":"Cylinder.001",
			"primitives":[
				{
					"attributes":{
						"POSITION":4,
						"NORMAL":5,
						"TEXCOORD_0":6
					},
					"indices":7,
					"material":0
				}
			]
		},
		{
			"name":"Cylinder.002",
			"primitives":[
				{
					"attributes":{
						"POSITION":8,
						"NORMAL":9,
						"TEXCOORD_0":10
					},
					"indices":11,
					"material":1
				}
			]
		},
		{
			"name":"rubberduck",
			"primitives":[
				{
					"attributes":{
						"POSITION":12,
						"NORMAL":13,
						"TEXCOORD_0":14
					},
					"indices":15,
					"material":2
				}
			]
		},
		{
			"name":"Mesh_0",
			"primitives":[
				{
					"attributes":{
						"POSITION":16,
						"NORMAL":17,
						"TEXCOORD_0":18
					},
					"indices":19,
					"material":3
				}
			]
		}
	],
	"textures":[
		{
			"sampler":0,
			"source":0
		},
		{
			"sampler":0,
			"source":1
		},
		{
			"sampler":0,
			"source":2
		},
		{
			"sampler":0,
			"source":3
		},
		{
			"sampler":0,
			"source":4
		},
		{
			"sampler":0,
			"source":4
		}
	],
	"images":[
		{
			"mimeType":"image/jpeg",
			"name":"Wood",
			"uri":"textures2/Wood.jpg"
		},
		{
			"mimeType":"image/jpeg",
			"name":"rubber_duck_toy_nor_gl_4k",
			"uri":"textures2/rubber_duck_toy_nor_gl_4k.jpg"
		},
		{
			"mimeType":"image/jpeg",
			"name":"rubber_duck_toy_diff_4k",
			"uri":"textures2/rubber_duck_toy_diff_4k.jpg"
		},
		{
			"mimeType":"image/jpeg",
			"name":"rubber_duck_toy_arm_4k",
			"uri":"textures2/rubber_duck_toy_arm_4k.jpg"
		},
		{
			"mimeType":"image/jpeg",
			"name":"Image_0",
			"uri":"textures2/Image_0.jpg"
		}
	],
	"accessors":[
		{
			"bufferView":0,
			"componentType":5126,
			"count":4,
			"max":[
				1,
				0,
				1
			],
			"min":[
				-1,
				0,
				-1
			],
			"type":"VEC3"
		},
		{
			"bufferView":1,
			"componentType":5126,
			"count":4,
			"type":"VEC3"
		},
		{
			"bufferView":2,
			"componentType":5126,
			"count":4,
			"type":"VEC2"
		},
		{
			"bufferView":3,
			"componentType":5123,
			"count":6,
			"type":"SCALAR"
		},
		{
			"bufferView":4,
			"componentType":5126,
			"count":304,
			"max":[
				1.3572447299957275,
				1.0457839965820312,
				1.3572447299957275
			],
			"min":[
				-1.3572447299957275,
				-1.0435000658035278,
				-1.3572447299957275
			],
			"type":"VEC3"
		},
		{
			"bufferView":5,
			"componentType":5126,
			"count":304,
			"type":"VEC3"
		},
		{
			"bufferView":6,
			"componentType":5126,
			"count":304,
			"type":"VEC2"
		},
		{
			"bufferView":7,
			"componentType":5123,
			"count":1140,
			"type":"SCALAR"
		},
		{
			"bufferView":8,
			"componentType":5126,
			"count":128,
			"max":[
				1.3572447299957275,
				0.5688918828964233,
				1.3572447299957275
			],
			"min":[
				-1.3572447299957275,
				-0.522075891494751,
				-1.3572447299957275
			],
			"type":"VEC3"
		},
		{
			"bufferView":9,
			"componentType":5126,
			"count":128,
			"type":"VEC3"
		},
		{
			"bufferView":10,
			"componentType":5126,
			"count":128,
			"type":"VEC2"
		},
		{
			"bufferView":11,
			"componentType":5123,
			"count":192,
			"type":"SCALAR"
		},
		{
			"bufferView":12,
			"componentType":5126,
			"count":2513,
			"max":[
				0.1067524179816246,
				0.2854783236980438,
				0.15390841662883759
			],
			"min":[
				-0.106752410531044,
				-4.4539570808410645e-05,
				-0.14609377086162567
			],
			"type":"VEC3"
		},
		{
			"bufferView":13,
			"componentType":5126,
			"count":2513,
			"type":"VEC3"
		},
		{
			"bufferView":14,
			"componentType":5126,
			"count":2513,
			"type":"VEC2"
		},
		{
			"bufferView":15,
			"componentType":5123,
			"count":12864,
			"type":"SCALAR"
		},
		{
			"bufferView":16,
			"componentType":5126,
			"count":295737,
			"max":[
				1.9096097946166992,
				1.7903034687042236,
				3.6568620204925537
			],
			"min":[
				-1.4736241102218628,
				-1.5321193933486938,
				-5.68921422958374
			],
			"type":"VEC3"
		},
		{
			"bufferView":17,
			"componentType":5126,
			"count":295737,
			"type":"VEC3"
		},
		{
			"bufferView":18,
			"componentType":5126,
			"count":295737,
			"type":"VEC2"
		},
		{
			"bufferView":19,
			"componentType":5125,
			"count":295863,
			"type":"SCALAR"
		}
	],
	"bufferViews":[
		{
			"buffer":0,
			"byteLength":48,
			"byteOffset":0,
			"target":34962
		},
		{
			"buffer":0,
			"byteLength":48,
			"byteOffset":48,
			"target":34962
		},
		{
			"buffer":0,
			"byteLength":32,
			"byteOffset":96,
			"target":34962
		},
		{
			"buffer":0,
			"byteLength":12,
			"byteOffset":128,
			"target":34963
		},
		{
			"buffer":0,
			"byteLength":3648,
			"byteOffset":140,
			"target":34962
		},
		{
			"buffer":0,
			"byteLength":3648,
			"byteOffset":3788,
			"target":34962
		},
		{
			"buffer":0,
			"byteLength":2432,
			"byteOffset":7436,
			"target":34962
		},
		{
			"buffer":0,
			"byteLength":2280,
			"byteOffset":9868,
			"target":34963
		},
		{
			"buffer":0,
			"byteLength":1536,
			"byteOffset":12148,
			"target":34962
		},
		{
			"buffer":0,
			"byteLength":1536,
			"byteOffset":13684,
			"target":34962
		},
		{
			"buffer":0,
			"byteLength":1024,
			"byteOffset":15220,
			"target":34962
		},
		{
			"buffer":0,
			"byteLength":384,
			"byteOffset":16244,
			"target":34963
		},
		{
			"buffer":0,
			"byteLength":30156,
			"byteOffset":16628,
			"target":34962
		},
		{
			"buffer":0,
			"byteLength":30156,
			"byteOffset":46784,
			"target":34962
		},
		{
			"buffer":0,
			"byteLength":20104,
			"byteOffset":76940,
			"target":34962
		},
		{
			"buffer":0,
			"byteLength":25728,
			"byteOffset":97044,
			"target":34963
		},
		{
			"buffer":0,
			"byteLength":3548844,
			"byteOffset":122772,
			"target":34962
		},
		{
			"buffer":0,
			"byteLength":3548844,
			"byteOffset":3671616,
			"target":34962
		},
		{
			"buffer":0,
			"byteLength":2365896,
			"byteOffset":7220460,
			"target":34962
		},
		{
			"buffer":0,
			"byteLength":1183452,
			"byteOffset":9586356,
			"target":34963
		}
	],
	"samplers":[
		{
			"magFilter":9729,
			"minFilter":9987
		}
	],
	"buffers":[
		{
			"byteLength":10769808,
			"uri":"Barrel2.bin"
		}
	]
}
